<svg width="760" height="210" viewBox="0 0 760 210" fill="none" xmlns="http://www.w3.org/2000/svg">
  <defs>
    <linearGradient id="psykeAccentDark" x1="20" y1="34" x2="160" y2="176" gradientUnits="userSpaceOnUse">
      <stop stop-color="#13E3E1" />
      <stop offset="1" stop-color="#04CFC4" />
    </linearGradient>
    <linearGradient id="psykeDotsDark" x1="190" y1="82" x2="238" y2="82" gradientUnits="userSpaceOnUse">
      <stop stop-color="#23BBFF" />
      <stop offset="1" stop-color="#08E2B1" />
    </linearGradient>
  </defs>
  <g transform="translate(0 10) scale(0.42)">
    <path d="M60 70C35 96 24 135 24 180C24 219 33 254 45 284H96L115 284C121 284 126 288 128 293L139 325C141 332 149 332 151 325L171 220C173 211 186 211 188 220L210 311C212 318 221 318 223 311L245 240C247 233 257 232 261 238L283 284H284H315C327 254 336 219 336 180C336 134 324 95 300 70" stroke="url(#psykeAccentDark)" stroke-width="12" stroke-linecap="round" stroke-linejoin="round"/>
    <circle cx="414" cy="154" r="18" fill="url(#psykeDotsDark)" />
    <circle cx="468" cy="154" r="18" fill="#08E2B1" />
  </g>
  <text x="236" y="116" fill="#1B2230" font-family="Figtree, Arial, sans-serif" font-size="92" font-weight="700" letter-spacing="6">PSYKE</text>
  <text x="238" y="164" fill="#2E617F" font-family="Figtree, Arial, sans-serif" font-size="34" font-weight="500" letter-spacing="7">SIMULADOR CLÍNICO</text>
</svg>
