<svg width="760" height="210" viewBox="0 0 760 210" fill="none" xmlns="http://www.w3.org/2000/svg">
  <defs>
    <linearGradient id="vitaBrand" x1="0" y1="0" x2="160" y2="160" gradientUnits="userSpaceOnUse">
      <stop stop-color="#0B9D7A" />
      <stop offset="1" stop-color="#0A7A64" />
    </linearGradient>
  </defs>
  
  <!-- Vita Mark Background -->
  <rect x="10" y="10" width="160" height="160" rx="32" fill="url(#vitaBrand)" />
  
  <!-- Vita "V" Icon -->
  <path d="M50 50C45 35 52 28 65 28H85C95 28 102 32 106 42L140 130C143 138 150 142 160 142H180C193 142 200 155 192 165L187 174C182 181 174 187 164 187H105C89 187 77 178 71 165L50 50Z" fill="white"/>
  <path d="M80 55C84 43 92 38 104 38H133C147 38 154 48 149 62L132 110C128 120 119 125 107 125H84C68 125 60 112 66 95L80 55Z" fill="white" opacity="0.8"/>
  
  <!-- Text -->
  <text x="236" y="116" fill="#0A1F3C" font-family="Syne, Arial, sans-serif" font-size="92" font-weight="700" letter-spacing="4">VITA</text>
  <text x="238" y="164" fill="#526981" font-family="Figtree, Arial, sans-serif" font-size="34" font-weight="500" letter-spacing="6">GESTIÓN CLÍNICA</text>
</svg>
